solid mesh
  facet normal 0 0 1
    outer loop
      vertex -95 95 50
      vertex -95 -95 50
      vertex 95 -95 50
    endloop
  endfacet
  facet normal -0 0 1
    outer loop
      vertex -95 95 50
      vertex 95 -95 50
      vertex 95 95 50
    endloop
  endfacet
  facet normal 0 -0 -1
    outer loop
      vertex 95 95 -50
      vertex 95 -95 -50
      vertex -95 -95 -50
    endloop
  endfacet
  facet normal -0 0 -1
    outer loop
      vertex 95 95 -50
      vertex -95 -95 -50
      vertex -95 95 -50
    endloop
  endfacet
  facet normal -1 0 0
    outer loop
      vertex -95 95 -50
      vertex -95 -95 -50
      vertex -95 -95 50
    endloop
  endfacet
  facet normal -1 0 0
    outer loop
      vertex -95 95 -50
      vertex -95 -95 50
      vertex -95 95 50
    endloop
  endfacet
  facet normal 1 0 0
    outer loop
      vertex 95 95 50
      vertex 95 -95 50
      vertex 95 -95 -50
    endloop
  endfacet
  facet normal 1 0 0
    outer loop
      vertex 95 95 50
      vertex 95 -95 -50
      vertex 95 95 -50
    endloop
  endfacet
  facet normal 0 1 0
    outer loop
      vertex -95 95 -50
      vertex -95 95 50
      vertex 95 95 50
    endloop
  endfacet
  facet normal 0 1 0
    outer loop
      vertex -95 95 -50
      vertex 95 95 50
      vertex 95 95 -50
    endloop
  endfacet
  facet normal 0 -1 0
    outer loop
      vertex -95 -95 50
      vertex -95 -95 -50
      vertex 95 -95 -50
    endloop
  endfacet
  facet normal 0 -1 0
    outer loop
      vertex -95 -95 50
      vertex 95 -95 -50
      vertex 95 -95 50
    endloop
  endfacet
endsolid mesh
