solid mesh
  facet normal 0 0 1
    outer loop
      vertex -86 86 50
      vertex -86 -86 50
      vertex 86 -86 50
    endloop
  endfacet
  facet normal -0 0 1
    outer loop
      vertex -86 86 50
      vertex 86 -86 50
      vertex 86 86 50
    endloop
  endfacet
  facet normal 0 -0 -1
    outer loop
      vertex 86 86 -50
      vertex 86 -86 -50
      vertex -86 -86 -50
    endloop
  endfacet
  facet normal -0 0 -1
    outer loop
      vertex 86 86 -50
      vertex -86 -86 -50
      vertex -86 86 -50
    endloop
  endfacet
  facet normal -1 0 0
    outer loop
      vertex -86 86 -50
      vertex -86 -86 -50
      vertex -86 -86 50
    endloop
  endfacet
  facet normal -1 0 0
    outer loop
      vertex -86 86 -50
      vertex -86 -86 50
      vertex -86 86 50
    endloop
  endfacet
  facet normal 1 0 0
    outer loop
      vertex 86 86 50
      vertex 86 -86 50
      vertex 86 -86 -50
    endloop
  endfacet
  facet normal 1 0 0
    outer loop
      vertex 86 86 50
      vertex 86 -86 -50
      vertex 86 86 -50
    endloop
  endfacet
  facet normal 0 1 0
    outer loop
      vertex -86 86 -50
      vertex -86 86 50
      vertex 86 86 50
    endloop
  endfacet
  facet normal 0 1 0
    outer loop
      vertex -86 86 -50
      vertex 86 86 50
      vertex 86 86 -50
    endloop
  endfacet
  facet normal 0 -1 0
    outer loop
      vertex -86 -86 50
      vertex -86 -86 -50
      vertex 86 -86 -50
    endloop
  endfacet
  facet normal 0 -1 0
    outer loop
      vertex -86 -86 50
      vertex 86 -86 -50
      vertex 86 -86 50
    endloop
  endfacet
endsolid mesh
