solid mesh
  facet normal 0 0 1
    outer loop
      vertex -94.5 94.5 94.5
      vertex -94.5 -94.5 94.5
      vertex 94.5 -94.5 94.5
    endloop
  endfacet
  facet normal -0 0 1
    outer loop
      vertex -94.5 94.5 94.5
      vertex 94.5 -94.5 94.5
      vertex 94.5 94.5 94.5
    endloop
  endfacet
  facet normal 0 -0 -1
    outer loop
      vertex 94.5 94.5 -94.5
      vertex 94.5 -94.5 -94.5
      vertex -94.5 -94.5 -94.5
    endloop
  endfacet
  facet normal -0 0 -1
    outer loop
      vertex 94.5 94.5 -94.5
      vertex -94.5 -94.5 -94.5
      vertex -94.5 94.5 -94.5
    endloop
  endfacet
  facet normal -1 0 0
    outer loop
      vertex -94.5 94.5 -94.5
      vertex -94.5 -94.5 -94.5
      vertex -94.5 -94.5 94.5
    endloop
  endfacet
  facet normal -1 0 0
    outer loop
      vertex -94.5 94.5 -94.5
      vertex -94.5 -94.5 94.5
      vertex -94.5 94.5 94.5
    endloop
  endfacet
  facet normal 1 0 0
    outer loop
      vertex 94.5 94.5 94.5
      vertex 94.5 -94.5 94.5
      vertex 94.5 -94.5 -94.5
    endloop
  endfacet
  facet normal 1 0 0
    outer loop
      vertex 94.5 94.5 94.5
      vertex 94.5 -94.5 -94.5
      vertex 94.5 94.5 -94.5
    endloop
  endfacet
  facet normal 0 1 0
    outer loop
      vertex -94.5 94.5 -94.5
      vertex -94.5 94.5 94.5
      vertex 94.5 94.5 94.5
    endloop
  endfacet
  facet normal 0 1 0
    outer loop
      vertex -94.5 94.5 -94.5
      vertex 94.5 94.5 94.5
      vertex 94.5 94.5 -94.5
    endloop
  endfacet
  facet normal 0 -1 0
    outer loop
      vertex -94.5 -94.5 94.5
      vertex -94.5 -94.5 -94.5
      vertex 94.5 -94.5 -94.5
    endloop
  endfacet
  facet normal 0 -1 0
    outer loop
      vertex -94.5 -94.5 94.5
      vertex 94.5 -94.5 -94.5
      vertex 94.5 -94.5 94.5
    endloop
  endfacet
endsolid mesh
